<?xml version="1.0" encoding="iso-8859-1"?>
<!-- Generator: Adobe Illustrator 21.0.0, SVG Export Plug-In . SVG Version: 6.00 Build 0)  -->
<svg xmlns="http://www.w3.org/2000/svg" xmlns:xlink="http://www.w3.org/1999/xlink" version="1.1" id="Capa_1" x="0px" y="0px" viewBox="0 0 512 512" style="enable-background:new 0 0 512 512;" xml:space="preserve" width="512" height="512">
<g>
	<path style="fill:#7C8388;" d="M421,406v91c0,8.399-6.599,15-15,15h-45l-15-31l-15,31H181l-15-31l-15,31h-45   c-8.401,0-15-6.601-15-15v-91c0-41.4,33.6-76,75-76h45v-7.8c-18.6-6.601-36-17.401-50.4-31.5c-25.501-26.1-39.6-60-39.6-95.7v-60   C121,60.599,181.601,0,256,0c74.7,0,135,60.599,135,135v60c0,57.9-36.599,108.6-90,127.2v7.8h45C387.4,330,421,364.6,421,406z"/>
	<path style="fill:#575F64;" d="M421,406v91c0,8.399-6.599,15-15,15h-45l-15-31l-15,31h-75V0c74.7,0,135,60.599,135,135v60   c0,57.9-36.599,108.6-90,127.2v7.8h45C387.4,330,421,364.6,421,406z"/>
	<path style="fill:#575F64;" d="M166,451c-8.291,0-15,6.709-15,15v46h30v-46C181,457.709,174.291,451,166,451z"/>
	<path style="fill:#32393F;" d="M346,451c-8.291,0-15,6.709-15,15v46h30v-46C361,457.709,354.291,451,346,451z"/>
	<path style="fill:#DA90F8;" d="M271,225c0,8.399-6.599,15-15,15s-15-6.601-15-15c0-8.401,6.599-15,15-15S271,216.599,271,225z"/>
	<path style="fill:#DA90F8;" d="M301,105c0,14.099-6.599,27.599-17.999,36c-7.5,5.7-12.001,14.7-12.001,24c0,8.399-6.599,15-15,15   s-15-6.601-15-15c0-14.7,5.4-28.801,15-39.6c2.701-3.001,5.7-6,9-8.401c3.9-2.999,6-7.2,6-11.999c0-8.401-6.599-15-15-15   s-15,6.599-15,15c0,8.399-6.599,15-15,15s-15-6.601-15-15c0-24.901,20.099-45,45-45S301,80.099,301,105z"/>
	<path style="fill:#B760EA;" d="M271,225c0,8.399-6.599,15-15,15v-30C264.401,210,271,216.599,271,225z"/>
	<path style="fill:#B760EA;" d="M301,105c0,14.099-6.599,27.599-17.999,36c-7.5,5.7-12.001,14.7-12.001,24c0,8.399-6.599,15-15,15   v-54.6c2.701-3.001,5.7-6,9-8.401c3.9-2.999,6-7.2,6-11.999c0-8.401-6.599-15-15-15V60C280.901,60,301,80.099,301,105z"/>
</g>















</svg>
